<?xml version="1.0" standalone="no"?>
<!DOCTYPE svg PUBLIC "-//W3C//DTD SVG 20010904//EN"
 "http://www.w3.org/TR/2001/REC-SVG-20010904/DTD/svg10.dtd">
<svg version="1.0" xmlns="http://www.w3.org/2000/svg"
 width="700.000000pt" height="700.000000pt" viewBox="0 0 700.000000 700.000000"
 preserveAspectRatio="xMidYMid meet">
<metadata>
Created by potrace 1.14, written by Peter Selinger 2001-2017
</metadata>
<g transform="translate(0.000000,700.000000) scale(0.100000,-0.100000)"
fill="#000000" stroke="none">
<path d="M2347 6714 c-1 -1 -58 -4 -127 -7 -69 -4 -141 -9 -160 -11 -19 -3
-57 -8 -84 -12 -27 -3 -58 -8 -70 -10 -12 -2 -34 -7 -51 -10 -149 -27 -425
-116 -605 -197 -299 -133 -664 -367 -812 -520 -237 -245 -335 -652 -257 -1072
12 -67 69 -180 118 -233 36 -40 38 -45 30 -80 -34 -139 -55 -278 -52 -335 0
-12 -26 -36 -76 -70 -42 -28 -80 -55 -86 -59 -5 -5 -29 -22 -53 -39 -71 -50
-80 -123 -21 -173 50 -42 75 -35 211 58 l123 83 100 -83 c144 -121 180 -133
240 -81 17 14 28 36 32 63 7 51 -9 71 -156 189 l-111 89 5 66 c3 36 10 88 15
115 6 28 12 60 15 73 6 34 15 44 34 36 32 -14 171 -13 226 1 85 22 147 58 248
143 136 115 362 285 435 327 9 6 60 36 112 67 175 103 359 181 518 219 116 28
132 30 256 35 236 9 465 -78 639 -245 253 -241 235 -584 -55 -1015 -73 -109
-206 -276 -225 -283 -7 -3 -53 5 -101 17 -48 12 -94 23 -102 25 -8 2 -64 15
-125 30 -115 27 -269 61 -320 70 -16 2 -41 7 -55 10 -13 2 -42 7 -65 10 -69
10 -89 13 -131 20 -23 3 -102 6 -175 7 -243 0 -384 -47 -512 -175 -93 -92
-112 -115 -168 -208 -110 -183 -139 -390 -84 -598 l13 -51 -82 -53 c-159 -104
-289 -259 -354 -423 -50 -127 -67 -222 -66 -374 0 -127 14 -210 50 -304 8 -21
14 -39 12 -40 -2 -1 -36 -21 -76 -45 -169 -99 -314 -303 -349 -492 -12 -69 -9
-237 6 -309 49 -227 226 -436 447 -524 146 -59 -4 -56 2494 -53 1262 2 2306 6
2320 9 14 4 50 9 80 13 212 23 479 103 666 200 154 79 261 154 377 264 268
256 437 581 531 1023 23 108 28 139 42 252 3 26 7 65 10 85 3 20 7 147 9 282
4 249 0 283 -36 352 -65 120 -238 177 -369 119 -62 -27 -107 -74 -175 -183
-88 -142 -168 -243 -288 -363 l-109 -110 -24 73 c-41 122 -83 190 -169 276
-58 59 -101 92 -157 120 l-78 40 -1 50 c-5 372 -261 663 -669 763 -134 33
-243 44 -416 43 l-162 0 25 50 c57 119 136 393 158 548 3 19 8 48 11 65 23
133 33 403 19 576 -19 250 -73 455 -177 667 -61 123 -97 152 -163 130 -16 -5
-25 0 -38 22 -9 16 -38 57 -63 90 l-47 62 18 33 c33 61 17 95 -99 209 -187
186 -357 307 -601 427 -182 90 -400 166 -560 194 -16 3 -41 8 -55 11 -85 17
-412 47 -423 39z"/>
</g>
</svg>
