<svg version="1.0" xmlns="http://www.w3.org/2000/svg" width="933.333" height="933.333" viewBox="0 0 700 700"><path d="M234.7 28.6c-.1.1-5.8.4-12.7.7-6.9.4-14.1.9-16 1.1-1.9.3-5.7.8-8.4 1.2-2.7.3-5.8.8-7 1-1.2.2-3.4.7-5.1 1-14.9 2.7-42.5 11.6-60.5 19.7-29.9 13.3-66.4 36.7-81.2 52-23.7 24.5-33.5 65.2-25.7 107.2 1.2 6.7 6.9 18 11.8 23.3 3.6 4 3.8 4.5 3 8-3.4 13.9-5.5 27.8-5.2 33.5 0 1.2-2.6 3.6-7.6 7-4.2 2.8-8 5.5-8.6 5.9-.5.5-2.9 2.2-5.3 3.9-7.1 5-8 12.3-2.1 17.3 5 4.2 7.5 3.5 21.1-5.8l12.3-8.3 10 8.3c14.4 12.1 18 13.3 24 8.1 1.7-1.4 2.8-3.6 3.2-6.3.7-5.1-.9-7.1-15.6-18.9L48 279.6l.5-6.6c.3-3.6 1-8.8 1.5-11.5.6-2.8 1.2-6 1.5-7.3.6-3.4 1.5-4.4 3.4-3.6 3.2 1.4 17.1 1.3 22.6-.1 8.5-2.2 14.7-5.8 24.8-14.3 13.6-11.5 36.2-28.5 43.5-32.7.9-.6 6-3.6 11.2-6.7 17.5-10.3 35.9-18.1 51.8-21.9 11.6-2.8 13.2-3 25.6-3.5 23.6-.9 46.5 7.8 63.9 24.5 25.3 24.1 23.5 58.4-5.5 101.5-7.3 10.9-20.6 27.6-22.5 28.3-.7.3-5.3-.5-10.1-1.7s-9.4-2.3-10.2-2.5c-.8-.2-6.4-1.5-12.5-3-11.5-2.7-26.9-6.1-32-7-1.6-.2-4.1-.7-5.5-1-1.3-.2-4.2-.7-6.5-1-6.9-1-8.9-1.3-13.1-2-2.3-.3-10.2-.6-17.5-.7-24.3 0-38.4 4.7-51.2 17.5-9.3 9.2-11.2 11.5-16.8 20.8-11 18.3-13.9 39-8.4 59.8l1.3 5.1-8.2 5.3c-15.9 10.4-28.9 25.9-35.4 42.3-5 12.7-6.7 22.2-6.6 37.4 0 12.7 1.4 21 5 30.4.8 2.1 1.4 3.9 1.2 4-.2.1-3.6 2.1-7.6 4.5-16.9 9.9-31.4 30.3-34.9 49.2-1.2 6.9-.9 23.7.6 30.9 4.9 22.7 22.6 43.6 44.7 52.4 14.6 5.9-.4 5.6 249.4 5.3 126.2-.2 230.6-.6 232-.9 1.4-.4 5-.9 8-1.3 21.2-2.3 47.9-10.3 66.6-20 15.4-7.9 26.1-15.4 37.7-26.4 26.8-25.6 43.7-58.1 53.1-102.3 2.3-10.8 2.8-13.9 4.2-25.2.3-2.6.7-6.5 1-8.5.3-2 .7-14.7.9-28.2.4-24.9 0-28.3-3.6-35.2-6.5-12-23.8-17.7-36.9-11.9-6.2 2.7-10.7 7.4-17.5 18.3-8.8 14.2-16.8 24.3-28.8 36.3l-10.9 11-2.4-7.3c-4.1-12.2-8.3-19-16.9-27.6-5.8-5.9-10.1-9.2-15.7-12l-7.8-4-.1-5c-.5-37.2-26.1-66.3-66.9-76.3-13.4-3.3-24.3-4.4-41.6-4.3h-16.2l2.5-5c5.7-11.9 13.6-39.3 15.8-54.8.3-1.9.8-4.8 1.1-6.5 2.3-13.3 3.3-40.3 1.9-57.6-1.9-25-7.3-45.5-17.7-66.7-6.1-12.3-9.7-15.2-16.3-13-1.6.5-2.5 0-3.8-2.2-.9-1.6-3.8-5.7-6.3-9l-4.7-6.2 1.8-3.3c3.3-6.1 1.7-9.5-9.9-20.9C379.9 77.1 362.9 65 338.5 53c-18.2-9-40-16.6-56-19.4-1.6-.3-4.1-.8-5.5-1.1-8.5-1.7-41.2-4.7-42.3-3.9z"/></svg>