<svg width="32" height="32" viewBox="0 0 32 32" fill="none" xmlns="http://www.w3.org/2000/svg">
<g clip-path="url(#clip0)">
<path d="M28.5253 5.05687L27.0238 4.44174L26.9091 4.25524C26.5138 3.61293 25.8136 3.22168 25.0595 3.22168C24.0776 3.22168 23.2177 3.88062 22.9625 4.8288L22.3693 7.03199C21.7258 9.42218 20.0327 11.3914 17.766 12.3859C14.7392 13.714 11.4698 14.3997 8.1645 14.3997H3.625V16.1932C3.625 18.0361 5.11887 19.53 6.96175 19.53C6.96175 21.1655 8.28756 22.4914 9.92313 22.4914H11.8001C11.8001 24.8179 13.6861 26.704 16.0127 26.704H17.9902C20.6182 26.704 22.9746 25.0851 23.9171 22.6321L24.0834 22.1994C26.2573 21.0031 27.6078 18.7185 27.6078 16.2371C27.6078 13.3966 27.0784 10.5809 26.0467 7.93437L25.6892 7.0173C26.3803 7.0173 26.9404 6.45712 26.9404 5.76605V5.05687H28.5253Z" fill="#FFB954"/>
<path d="M26.909 4.2553C26.5137 3.61298 25.8135 3.22173 25.0594 3.22173C24.2176 3.22173 23.466 3.70623 23.1076 4.4418L21.9147 3.19217C21.662 2.92748 21.8571 2.48948 22.2229 2.50023C22.4536 2.50704 22.6443 2.32186 22.6443 2.09098V1.47886C22.6443 1.16173 22.9893 0.965043 23.2623 1.12654L24.3232 1.75448C24.5226 1.87248 24.7802 1.80167 24.8911 1.59823L25.3054 0.838731C25.4654 0.545418 25.8904 0.556918 26.0343 0.858418L26.4538 1.73736C26.5217 1.87973 26.6655 1.97042 26.8233 1.97042H27.3693C27.672 1.97042 27.87 2.28748 27.7372 2.55948L26.909 4.2553Z" fill="#FF5D5D"/>
<path d="M20.7781 15.1923C17.6978 16.6443 14.3345 17.3972 10.9291 17.3972H10.3818C11.0213 19.2019 12.7283 20.4081 14.643 20.4081H14.9338C14.9338 21.4163 15.7511 22.2336 16.7593 22.2336C18.3475 22.2336 19.7855 21.2944 20.4238 19.8401L20.4406 19.8019C20.6631 19.2948 20.778 18.7471 20.778 18.1934V15.1923H20.7781Z" fill="#FF5D5D"/>
<path d="M28.7623 4.47821L27.7067 4.04577L28.2987 2.8334C28.4564 2.51065 28.4369 2.13615 28.2466 1.83152C28.0564 1.5269 27.7284 1.34509 27.3693 1.34509H26.9593L26.5983 0.588836C26.4301 0.236399 26.0831 0.0108985 25.6927 0.000336029C25.3036 -0.00947647 24.9438 0.196211 24.7567 0.539086L24.4494 1.10252L23.5806 0.588336C23.2616 0.399524 22.8636 0.396274 22.5414 0.579899C22.2194 0.763524 22.0194 1.10777 22.0194 1.47846V1.89227C21.6897 1.95371 21.4066 2.1724 21.2659 2.48821C21.0946 2.87302 21.1718 3.31865 21.4626 3.6234L22.3821 4.58652C22.3741 4.6129 22.3661 4.63921 22.3589 4.66596L21.7657 6.86921C21.3842 8.28621 20.6042 9.55227 19.5099 10.5304C19.2526 10.7605 19.2305 11.1556 19.4606 11.4129C19.6906 11.6703 20.0856 11.6924 20.3431 11.4623C21.6186 10.322 22.5279 8.84615 22.9727 7.19415L23.5659 4.99096C23.7473 4.31702 24.3614 3.84634 25.0594 3.84634C25.5925 3.84634 26.0973 4.1284 26.3767 4.58252L26.4388 4.68346C26.3612 4.78759 26.3153 4.91665 26.3153 5.05652V5.76559C26.3153 6.1109 26.0343 6.3919 25.6889 6.3919C25.4825 6.3919 25.2894 6.49384 25.1729 6.66421C25.0565 6.83459 25.0316 7.05152 25.1066 7.24384L25.4641 8.1609C26.4717 10.7455 26.9826 13.4626 26.9826 16.2366C26.9826 18.4901 25.7561 20.5649 23.7818 21.6514C23.6526 21.7225 23.5526 21.837 23.4997 21.9748L23.3334 22.4074C22.4897 24.6032 20.3423 26.0785 17.99 26.0785H16.0137C16.0013 26.0781 15.989 26.0773 15.9766 26.0776C14.0149 26.0582 12.4247 24.4571 12.4247 22.4909C12.4247 22.1457 12.1449 21.8659 11.7997 21.8659H9.92287C8.63462 21.8659 7.5865 20.8178 7.5865 19.5295C7.5865 19.1843 7.30662 18.9045 6.9615 18.9045C5.46625 18.9045 4.24975 17.6881 4.24975 16.1928V15.0244H8.16425C10.7111 15.0244 13.232 14.6298 15.657 13.8516C15.9857 13.7461 16.1666 13.3942 16.0611 13.0655C15.9557 12.7369 15.6039 12.5559 15.2751 12.6614C12.9738 13.4 10.5813 13.7744 8.16431 13.7744H3.625C3.27988 13.7744 3 14.0542 3 14.3994V16.1929C3 18.1813 4.47238 19.8322 6.38412 20.1126C6.66337 21.814 8.144 23.116 9.92312 23.116H11.2152C11.5026 25.3333 13.2972 27.084 15.5344 27.3047L16.4716 30.0978C15.8477 30.1891 15.3666 30.7263 15.3666 31.3751C15.3666 31.7203 15.6465 32.0001 15.9916 32.0001C16.3367 32.0001 16.6166 31.7203 16.6166 31.3751C16.6166 31.3516 16.6357 31.3326 16.6591 31.3326H17.3307C17.3323 31.3326 17.3338 31.3328 17.3353 31.3328C17.3368 31.3328 17.3384 31.3326 17.3399 31.3326H17.9765C17.9999 31.3326 18.0191 31.3516 18.0191 31.3751C18.0191 31.7203 18.2989 32.0001 18.6441 32.0001C18.9892 32.0001 19.2691 31.7203 19.2691 31.3751C19.2691 31.3608 19.2674 31.3468 19.2669 31.3326H19.4649C19.4664 31.3326 19.4679 31.3328 19.4695 31.3328C19.471 31.3328 19.4726 31.3326 19.4741 31.3326H20.1108C20.1342 31.3326 20.1532 31.3516 20.1532 31.3751C20.1532 31.7203 20.4331 32.0001 20.7782 32.0001C21.1234 32.0001 21.4032 31.7203 21.4032 31.3751C21.4032 30.6624 20.8234 30.0826 20.1108 30.0826H19.919L18.9716 27.259C20.0331 27.1092 21.0446 26.7175 21.9396 26.1028C23.1069 25.3007 23.9925 24.178 24.5006 22.856L24.5869 22.6313C26.8418 21.2971 28.2328 18.8683 28.2328 16.2368C28.2328 13.3068 27.6932 10.437 26.629 7.70702L26.5266 7.44446C27.142 7.13627 27.5654 6.49946 27.5654 5.76565V5.68159H28.5254C28.824 5.68159 29.0809 5.47034 29.1386 5.17734C29.1963 4.88427 29.0386 4.5914 28.7623 4.47821ZM18.3066 30.0825C18.2591 30.0825 18.2129 30.0883 18.1684 30.0984C18.1056 30.089 18.0418 30.0825 17.9764 30.0825H17.7849L16.8609 27.3286H17.6766L18.6006 30.0825H18.3066ZM25.0595 2.59634C24.2771 2.59634 23.5531 2.92371 23.0375 3.46271L22.6379 3.04415C22.7543 2.99484 22.8618 2.92377 22.9556 2.83277C23.1579 2.63627 23.2694 2.37271 23.2694 2.09065V1.85665L24.0049 2.29196C24.2451 2.43409 24.5371 2.47309 24.8062 2.39909C25.0753 2.32502 25.3062 2.14209 25.4399 1.89709L25.6521 1.50809L25.8898 2.00627C26.0606 2.3639 26.4271 2.59502 26.8234 2.59502H27.0242L26.7456 3.16552C26.2654 2.80365 25.6731 2.59634 25.0595 2.59634Z" fill="black"/>
<path d="M10.3819 16.7721C10.1789 16.7721 9.98855 16.8706 9.87142 17.0364C9.7543 17.2021 9.72492 17.4145 9.79273 17.6058C10.4905 19.5751 12.3171 20.9236 14.3879 21.0266C14.6626 22.0793 15.6216 22.8585 16.7592 22.8585C18.5951 22.8585 20.2582 21.7722 20.9961 20.0911L21.0129 20.0529C21.2718 19.463 21.4031 18.8373 21.4031 18.1933V15.1922C21.4031 14.9781 21.2936 14.779 21.1127 14.6644C20.9321 14.5498 20.7052 14.5356 20.5116 14.6268C17.5342 16.0302 14.2207 16.772 10.9291 16.772H10.3819V16.7721ZM20.1531 16.1551V18.1933C20.1531 18.6634 20.0572 19.1201 19.8683 19.5506L19.8515 19.5888C19.3129 20.8158 18.0991 21.6085 16.7592 21.6085C16.0972 21.6085 15.5587 21.07 15.5587 20.408C15.5587 20.0628 15.2788 19.783 14.9337 19.783H14.643C13.3107 19.783 12.0903 19.1004 11.3817 18.0176C14.3817 17.9591 17.3862 17.3202 20.1531 16.1551Z" fill="black"/>
<path d="M22.5767 19.4614C22.2743 19.6279 22.164 20.0079 22.3305 20.3104C22.4443 20.5173 22.6581 20.6342 22.8787 20.6342C22.9805 20.6342 23.0838 20.6093 23.1795 20.5566C24.7489 19.6929 25.7274 18.0436 25.7328 16.2522C25.7339 15.907 25.455 15.6263 25.1098 15.6252C24.7672 15.6247 24.4838 15.9031 24.4828 16.2483C24.4787 17.5856 23.7483 18.8168 22.5767 19.4614Z" fill="black"/>
<path d="M24.8845 13.1296C24.5417 13.1694 24.296 13.4796 24.3358 13.8225C24.336 13.8242 24.3368 13.8312 24.3371 13.8329L24.3387 13.8465C24.3773 14.1635 24.6469 14.396 24.9583 14.396C24.9835 14.396 25.0091 14.3945 25.0347 14.3914C25.3773 14.3497 25.6213 14.038 25.5796 13.6954L25.5777 13.6803L25.5775 13.6784C25.5376 13.3355 25.2275 13.0897 24.8845 13.1296Z" fill="black"/>
<path d="M17.8096 12.9771C17.9739 12.9771 18.1352 12.9102 18.2514 12.7939C18.3676 12.6771 18.4346 12.5164 18.4346 12.3514C18.4346 12.1871 18.3677 12.0264 18.2514 11.9096C18.1352 11.7933 17.9739 11.7264 17.8096 11.7264C17.6452 11.7264 17.4839 11.7933 17.3677 11.9096C17.2514 12.0264 17.1846 12.1871 17.1846 12.3514C17.1846 12.5164 17.2514 12.6771 17.3677 12.7939C17.4839 12.9103 17.6452 12.9771 17.8096 12.9771Z" fill="black"/>
</g>
<defs>
<clipPath id="clip0">
<rect width="32" height="32" fill="white"/>
</clipPath>
</defs>
</svg>
