<svg width="32" height="32" viewBox="0 0 32 32" fill="none" xmlns="http://www.w3.org/2000/svg">
<path d="M22.0099 6.18945L19.2012 8.22908L18.1367 16.0003L19.4568 23.7288L22.01 25.8111C23.0096 25.6591 23.9772 25.4138 24.8906 25.0803V6.9202C23.9772 6.58677 23.0095 6.34145 22.0099 6.18945Z" fill="#EFEDEE"/>
<path d="M22.2851 24.5116C21.7398 24.5941 21.1852 24.6494 20.625 24.6782L22.0136 25.8106C23.0132 25.6586 23.9808 25.4134 24.8942 25.0799V23.8911C24.0583 24.1664 23.1841 24.3749 22.2851 24.5116Z" fill="#D2D2D2"/>
<path d="M31.6629 18.4362L31.4081 17.9887L31.8799 17.4698C31.9582 16.9955 31.9993 16.5054 31.9993 16C31.9993 11.6484 28.9852 8.41005 24.8929 6.91992C23.3926 9.47542 22.5781 12.6448 22.5781 16C22.5781 19.3552 23.3925 22.5252 24.8929 25.08C28.1793 23.8833 30.7699 21.5589 31.6629 18.4362Z" fill="#FA9F6A"/>
<path d="M3.51106 20.3699C1.47356 21.6493 0 20.6522 0 15.9998C0 11.3474 1.47356 10.3503 3.51106 11.6297V20.3699Z" fill="#3A484A"/>
<path d="M5.96286 13.921V18.0791C5.09868 19.1087 4.26574 19.8956 3.51081 20.3702C2.90844 19.6843 2.55469 18.2816 2.55469 16.0001C2.55469 13.7186 2.90856 12.3159 3.51081 11.6299C4.2658 12.1045 5.09868 12.8914 5.96286 13.921Z" fill="#E0712F"/>
<path d="M12.5967 7.62665C9.52311 3.75915 13.6857 2.06465 17.9263 3.53559L12.5967 7.62665Z" fill="#3A484A"/>
<path d="M12.5967 24.3735C9.52311 28.2411 13.6857 29.9356 17.9263 28.4646L12.5967 24.3735Z" fill="#3A484A"/>
<path d="M22.0138 6.18909L12.5977 7.62622C12.5977 7.62622 13.7965 4.46259 17.9272 3.53516C19.3752 4.03791 20.8328 4.90909 22.0138 6.18909Z" fill="#E0712F"/>
<path d="M22.0138 25.8107L12.5977 24.3735C12.5977 24.3735 13.7965 27.5372 17.9272 28.4646C19.3752 27.9618 20.8328 27.0907 22.0138 25.8107Z" fill="#FA9F6A"/>
<path d="M12.598 7.62642H12.5974C12.5972 7.62679 12.5971 7.62717 12.5969 7.62761L10.5608 9.76186L9.07031 16.63L10.5607 22.1956L12.5974 24.3737C13.8704 24.9984 15.197 25.4327 16.5351 25.692V6.30811C15.1976 6.56736 13.8703 7.00173 12.598 7.62642Z" fill="#EFEDEE"/>
<path d="M16.4644 24.386H16.4637C15.0412 24.1104 13.6309 23.6485 12.2776 22.9845C11.6733 22.6885 11.0807 22.3523 10.5039 21.9746L10.5632 22.1961L12.5999 24.3742C12.9182 24.5304 13.2398 24.6746 13.5641 24.8072C14.5369 25.205 15.5341 25.498 16.5377 25.6925V24.3994C16.5132 24.3948 16.4888 24.3907 16.4644 24.386Z" fill="#D2D2D2"/>
<path d="M19.7046 16.0003C19.7046 19.5573 20.5133 22.9566 22.013 25.8111C20.2482 26.0781 18.3824 26.0519 16.5352 25.6923H16.5346C14.7929 23.0409 13.8398 19.6288 13.8398 16.0003C13.8398 12.3717 14.7929 8.96029 16.5346 6.30829H16.5352C18.3824 5.94866 20.2481 5.92247 22.013 6.18947C20.514 9.04397 19.7046 12.4433 19.7046 16.0003Z" fill="#FA9F6A"/>
<path d="M10.9653 16.0001C10.9653 18.9772 11.5319 21.8443 12.5966 24.3737C9.79388 23.0012 7.25687 20.7107 5.46717 17.3446C5.02136 16.5053 5.02136 15.4948 5.46717 14.6556C7.25687 11.2895 9.79325 8.99903 12.5966 7.62646C11.5325 10.1558 10.9653 13.0223 10.9653 16.0001Z" fill="#FA9F6A"/>
<path d="M25.2885 24.9296C26.6032 24.4051 27.8459 23.676 28.9037 22.7318C28.9085 22.7276 28.9135 22.7234 28.9182 22.7191C29.4023 22.2854 29.8468 21.8065 30.2368 21.2864C30.2408 21.2813 30.2446 21.2759 30.2485 21.2708C30.7438 20.6077 31.1475 19.8837 31.4419 19.104C30.0972 21.2058 27.924 22.7966 25.3475 23.7348C25.0206 23.8541 24.6867 23.9619 24.3477 24.0598C24.5183 24.4094 24.7004 24.7498 24.8942 25.0799C25.0264 25.0318 25.1578 24.9816 25.2885 24.9296Z" fill="#E0712F"/>
<path d="M16.4623 24.3855C16.2036 24.3354 15.9452 24.2789 15.6875 24.2163C15.9453 24.7299 16.2281 25.2231 16.5369 25.692C18.1184 25.9999 19.7462 26.0701 21.3482 25.8971C21.5717 25.873 21.7939 25.8442 22.0145 25.8109C21.8106 25.4227 21.6199 25.0241 21.4418 24.6168C19.8201 24.7786 18.1346 24.7109 16.4623 24.3855Z" fill="#E0712F"/>
<path d="M12.5975 24.3737C12.3908 23.8826 12.2035 23.3786 12.0348 22.8637C9.38022 21.5094 6.96372 19.3683 5.15234 16.3208C5.15591 16.3524 5.16059 16.3839 5.16516 16.4153C5.21241 16.7397 5.31428 17.0549 5.46809 17.3446C5.95122 18.2532 6.51009 19.1225 7.14478 19.9329C8.70591 21.9264 10.583 23.3872 12.5975 24.3737Z" fill="#E0712F"/>
<path d="M31.741 17.4636C31.7336 17.4644 30.9923 17.5387 30.2127 17.3241C29.9556 17.2533 29.6898 17.4044 29.619 17.6615C29.5482 17.9186 29.6993 18.1845 29.9564 18.2552C30.5159 18.4092 31.0549 18.442 31.4126 18.442C31.5127 18.442 31.5979 18.4395 31.6661 18.4362C31.7559 18.1221 31.8286 17.7998 31.8831 17.4698C31.8373 17.461 31.7896 17.4585 31.741 17.4636Z" fill="#3A484A"/>
<path d="M27.221 17.1129C27.1545 17.1129 27.0869 17.0991 27.0225 17.0699C26.7794 16.9601 26.6714 16.6741 26.7812 16.4311C26.9915 15.9657 27.4013 15.6112 27.9055 15.4585C28.4097 15.3058 28.9473 15.3735 29.3804 15.6441C29.6066 15.7854 29.6753 16.0834 29.534 16.3095C29.3927 16.5356 29.0948 16.6045 28.8687 16.4631C28.672 16.3402 28.4229 16.3109 28.1854 16.3829C27.9479 16.4548 27.7569 16.6172 27.6614 16.8287C27.5807 17.0072 27.4049 17.1129 27.221 17.1129Z" fill="#3A484A"/>
</svg>
