<svg width="32" height="32" viewBox="0 0 32 32" fill="none" xmlns="http://www.w3.org/2000/svg">
<g clip-path="url(#clip0)">
<path d="M24.3138 11.9062C24.3476 11.8896 25.9049 11.1401 29.4952 11.7746L27.0858 14.3983C27.0858 14.3983 29.8068 15.2114 31.3376 17.5295L27.5118 18.455C27.5118 18.455 29.7043 20.1314 30.1124 22.4952L27.6521 22.7764C26.7682 22.8769 25.8765 22.904 24.9893 22.8452C24.7676 22.8306 24.546 22.8108 24.3251 22.785C20.1156 22.2967 16.0047 20.4351 13.3108 18.1951C14.1834 17.3344 14.3541 16.0873 13.6892 15.3914C13.0151 14.6875 11.7389 14.8151 10.8379 15.6765C10.8015 15.7116 10.7665 15.7466 10.7327 15.783C10.1843 15.3596 9.62724 15.0096 9.11855 14.7278C8.1123 14.1708 6.87849 14.3434 6.06543 15.1115C9.41755 9.0602 13.6582 7.40827 13.6582 7.40827L13.2447 10.722C13.2447 10.722 16.0523 7.20845 19.8146 7.03314L20.0984 10.1206C20.0984 10.1206 21.9898 8.03339 25.5655 8.26295L24.3138 11.9062Z" fill="#6E5B3F"/>
<path d="M13.311 18.1951C16.0048 20.4352 20.1158 22.2968 24.3253 22.785C24.5462 22.8109 24.7678 22.8307 24.9895 22.8452L24.9861 22.8929H24.8353H22.723L14.2252 22.5568V23.7496C14.2252 24.3854 13.7098 24.9668 13.0741 24.9668H8.56092C8.56092 24.7128 8.61648 24.4548 8.71573 24.216C8.81498 23.9772 8.95855 23.7575 9.13448 23.5789C9.56717 23.141 10.1692 22.9101 10.7851 22.9107L11.8873 22.9114V21.8622C9.10542 21.6313 8.00461 20.8626 8.00461 20.8626C4.94093 21.4103 3.13687 21.0167 2.07568 20.3816V20.3809C3.72893 19.9251 3.76331 17.5296 3.76331 17.5296L3.61974 17.4873C4.18074 17.2114 4.70737 16.837 5.08843 16.3356C5.35374 15.9863 5.58461 15.6839 5.78574 15.4219C5.87174 15.3095 5.96568 15.2063 6.06555 15.1117C6.87861 14.3436 8.11242 14.1709 9.11867 14.728C9.62742 15.0098 10.1844 15.3598 10.7329 15.7832C10.7666 15.7468 10.8017 15.7118 10.838 15.6767C11.7391 14.8153 13.0152 14.6876 13.6893 15.3916C14.3542 16.0874 14.1835 17.3344 13.311 18.1951Z" fill="#DBB67E"/>
<path d="M24.8354 22.8929V22.9108C24.8354 23.6894 24.1626 24.9669 23.5176 24.9669H19.5569C19.5569 23.8581 20.3011 22.8929 21.2194 22.8929H22.7231H24.8354Z" fill="#DBB67E"/>
<path d="M3.61963 17.4872L3.7632 17.5296C3.7632 17.5296 3.72882 19.925 2.07557 20.3809V20.3815C1.22151 19.8702 0.848388 19.204 0.685639 18.7455C0.593701 18.4868 0.773639 18.2109 1.04683 18.1871C1.65545 18.1349 2.68489 17.9471 3.61963 17.4872Z" fill="#6E5B3F"/>
<path d="M8.73185 10.2939C8.48172 10.5601 8.49478 10.9789 8.76116 11.229C8.88885 11.3489 9.0516 11.4084 9.21391 11.4084C9.39022 11.4084 9.56603 11.3383 9.69622 11.1997L9.74666 11.1463C9.99791 10.881 9.9866 10.4623 9.72141 10.211C9.45628 9.95976 9.03753 9.97107 8.78616 10.2363L8.73185 10.2939Z" fill="black"/>
<path d="M28.2234 14.1379L29.9828 12.2221C30.1462 12.0442 30.1996 11.7912 30.1221 11.5624C30.0446 11.3336 29.8485 11.1652 29.6106 11.1231C27.6459 10.7759 26.2475 10.8241 25.339 10.9596L26.1916 8.47795C26.2586 8.28295 26.2308 8.0677 26.1165 7.89608C26.0021 7.72439 25.8142 7.61601 25.6083 7.60276C23.2956 7.45464 21.6272 8.19845 20.6451 8.83676L20.4738 6.97258C20.4414 6.6202 20.1375 6.35789 19.7842 6.37227C17.396 6.48358 15.3959 7.80095 14.1412 8.88257L14.315 7.49014C14.3439 7.25883 14.2489 7.02952 14.065 6.88627C13.8811 6.74302 13.6355 6.70727 13.4183 6.7917C13.3563 6.81583 11.879 7.40227 9.97816 9.08314C9.70447 9.3252 9.67878 9.74332 9.92078 10.0169C10.1628 10.2907 10.581 10.3163 10.8547 10.0743C11.6243 9.3937 12.316 8.91126 12.8448 8.58608L12.5885 10.64C12.5519 10.9336 12.7149 11.2155 12.9874 11.3308C13.2598 11.4461 13.576 11.3662 13.7613 11.1355C13.786 11.1048 16.116 8.2457 19.2172 7.75814L19.44 10.1811C19.464 10.4425 19.6402 10.6649 19.8892 10.7481C20.1381 10.8311 20.4127 10.7593 20.589 10.5648C20.6041 10.548 21.9941 9.04964 24.642 8.91626L23.6886 11.6911C23.6881 11.6926 23.6878 11.6942 23.6873 11.6957C23.6813 11.7135 23.6761 11.7314 23.6718 11.7495C23.6708 11.7533 23.6698 11.7571 23.669 11.7609C23.6652 11.7779 23.6621 11.7951 23.6597 11.8123C23.659 11.8171 23.6582 11.8221 23.6576 11.8269C23.6556 11.8431 23.6545 11.8594 23.6538 11.8756C23.6535 11.8811 23.6531 11.8867 23.653 11.8922C23.6526 11.9083 23.6531 11.9246 23.654 11.9407C23.6542 11.9458 23.6543 11.9509 23.6547 11.9559C23.656 11.9731 23.6581 11.9902 23.6608 12.0074C23.6613 12.0109 23.6617 12.0145 23.6623 12.0181C23.6655 12.0369 23.6696 12.0555 23.6745 12.074C23.6749 12.0756 23.6753 12.0772 23.6757 12.0788C23.6811 12.0987 23.6874 12.1183 23.6946 12.1376C23.6947 12.1378 23.6948 12.138 23.6948 12.1383C23.7021 12.1578 23.7105 12.177 23.7197 12.1959C23.7198 12.1961 23.7199 12.1964 23.72 12.1966C23.7288 12.2144 23.7383 12.2318 23.7488 12.249C23.7497 12.2505 23.7506 12.2521 23.7515 12.2536C23.7608 12.2688 23.771 12.2835 23.7818 12.2981C23.7843 12.3016 23.7868 12.305 23.7894 12.3084C23.799 12.3208 23.8091 12.3329 23.8197 12.3448C23.8241 12.3498 23.8286 12.3548 23.8331 12.3597C23.8376 12.3644 23.8415 12.3695 23.8463 12.3742C23.8538 12.3817 23.8616 12.3884 23.8693 12.3954C23.8711 12.3972 23.873 12.3989 23.8749 12.4006C23.9995 12.5115 24.1557 12.5674 24.3123 12.5678C24.313 12.5678 24.3137 12.5679 24.3145 12.5679C24.3257 12.5679 24.3368 12.5671 24.348 12.5666C24.353 12.5663 24.3581 12.5664 24.3631 12.5659C24.3736 12.5651 24.3841 12.5638 24.3945 12.5625C24.401 12.5617 24.4076 12.5612 24.4141 12.5602C24.4218 12.559 24.4295 12.5573 24.4371 12.5559C24.4463 12.5541 24.4556 12.5526 24.465 12.5504C24.4692 12.5494 24.4733 12.5481 24.4776 12.5469C24.4901 12.5438 24.5025 12.5405 24.5148 12.5366C24.5151 12.5366 24.5153 12.5364 24.5156 12.5364C24.5466 12.5265 24.5771 12.5144 24.6067 12.4999C24.692 12.4629 25.7953 12.0126 28.1574 12.2538L26.5992 13.9506C26.445 14.1185 26.3881 14.3541 26.4487 14.5738C26.5093 14.7935 26.6787 14.9666 26.8971 15.0319C26.9187 15.0384 28.787 15.6114 30.1846 17.1277L27.357 17.8118C27.1096 17.8717 26.919 18.0686 26.866 18.3176C26.813 18.5666 26.9081 18.8243 27.1099 18.9796C27.1276 18.9932 28.6807 20.206 29.2823 21.9241L27.5781 22.1188C26.7129 22.2172 25.8569 22.2393 25.0335 22.1847C24.8189 22.1707 24.6068 22.1514 24.4022 22.1275C20.8138 21.7113 16.9876 20.1828 14.2472 18.0936C14.9455 17.0342 14.9441 15.746 14.1678 14.9335C13.3231 14.0515 11.8334 14.0744 10.6945 14.9329C10.3007 14.6558 9.88065 14.393 9.43984 14.1487C8.88653 13.8423 8.27709 13.7096 7.67947 13.7414C7.96797 13.3129 8.26716 12.8993 8.57678 12.5047C8.80234 12.2173 8.75222 11.8014 8.46478 11.5759C8.17734 11.3502 7.76147 11.4004 7.53591 11.6878C6.81191 12.6104 6.13966 13.6254 5.53603 14.7051C5.43697 14.805 5.3446 14.9101 5.26166 15.0186C5.05997 15.2814 4.82841 15.5847 4.56241 15.9349C4.27947 16.3074 3.86429 16.6298 3.3286 16.8932C2.33729 17.3807 1.28879 17.5021 0.990226 17.5277C0.653476 17.5571 0.355477 17.7372 0.172602 18.0219C-0.00958558 18.3055 -0.0494605 18.6499 0.0631019 18.9665C0.264664 19.5344 0.718726 20.3392 1.73673 20.9489C3.15079 21.7952 5.21672 21.9988 7.87991 21.5552C8.23828 21.7459 8.97809 22.0691 10.2057 22.3035C9.61791 22.4159 9.07559 22.6978 8.66409 23.1143C8.43078 23.3511 8.23766 23.6443 8.10566 23.9618C7.97122 24.2852 7.90022 24.6327 7.90022 24.9665C7.90022 25.3319 8.19641 25.6281 8.56178 25.6281H13.075C14.0576 25.6281 14.8877 24.7677 14.8877 23.7493V23.2448L19.3048 23.4195C19.0473 23.8598 18.8961 24.3927 18.8961 24.9666C18.8961 25.3319 19.1923 25.6282 19.5576 25.6282H23.5184C24.058 25.6282 24.5796 25.2523 24.9872 24.5697C25.1846 24.2392 25.3325 23.8764 25.4171 23.5285C25.5853 23.5342 25.7544 23.5372 25.9245 23.5372C26.5178 23.5372 27.1214 23.5025 27.7283 23.4335L30.1886 23.1523C30.3695 23.1316 30.5338 23.0374 30.643 22.8917C30.7522 22.7461 30.7964 22.5619 30.7654 22.3825C30.5003 20.8466 29.5813 19.5925 28.8568 18.8105L31.4943 18.1724C31.7038 18.1217 31.8754 17.9722 31.9544 17.7717C32.0333 17.5711 32.0096 17.3447 31.8908 17.1648C30.8166 15.5395 29.2296 14.6026 28.2234 14.1379ZM2.94697 18.4673C2.81829 18.9142 2.58279 19.3997 2.15347 19.6382C1.79466 19.3692 1.57204 19.0716 1.43416 18.8092C1.79323 18.7608 2.34285 18.6619 2.94697 18.4673ZM14.2514 21.8957C14.0723 21.8892 13.8966 21.9551 13.7668 22.0798C13.637 22.2045 13.5637 22.3767 13.5637 22.5567V23.7495C13.5637 24.0352 13.3258 24.3052 13.0741 24.3052H9.40784C9.46397 24.2079 9.53072 24.1191 9.60503 24.0437C9.90122 23.744 10.3302 23.5722 10.7827 23.5722C10.7833 23.5722 10.784 23.5722 10.7846 23.5722L11.8868 23.5729C11.8869 23.5729 11.887 23.5729 11.8872 23.5729C12.0625 23.5729 12.2308 23.5032 12.3548 23.3792C12.479 23.2551 12.5487 23.0868 12.5487 22.9113V21.8621C12.5487 21.518 12.2849 21.2313 11.9418 21.2028C9.48928 20.9992 8.44359 20.3581 8.38003 20.3177C8.23478 20.2126 8.06491 20.1796 7.88797 20.2112C6.1041 20.5302 4.60803 20.5393 3.48066 20.2454C4.1816 19.4469 4.36216 18.3181 4.40866 17.8063C4.90072 17.5019 5.30535 17.1432 5.61516 16.7355C5.87972 16.3872 6.10985 16.0857 6.31116 15.8236C6.37297 15.7428 6.44335 15.6649 6.51972 15.5925C7.13728 15.009 8.05291 14.894 8.79784 15.3065C9.14847 15.5007 9.48391 15.7074 9.80078 15.9239C9.57141 16.3064 9.42484 16.7228 9.37741 17.1416C9.33634 17.5047 9.59728 17.8323 9.96034 17.8734C10.3233 17.9146 10.651 17.6536 10.6921 17.2904C10.7336 16.9241 10.919 16.5499 11.2176 16.2331C11.2428 16.2059 11.2693 16.1796 11.2951 16.1548C11.9202 15.5572 12.7978 15.4171 13.2109 15.8484C13.6151 16.2715 13.4482 17.1305 12.843 17.7272C12.837 17.7333 12.8305 17.7394 12.8204 17.7489C12.4759 18.0784 12.0455 18.2803 11.6393 18.3026C11.2744 18.3226 10.9949 18.6346 11.0149 18.9994C11.0342 19.3519 11.3261 19.6247 11.6749 19.6247C11.6871 19.6247 11.6994 19.6244 11.7117 19.6237C12.273 19.5929 12.8289 19.3908 13.3174 19.048C14.8888 20.2719 16.7636 21.3054 18.7646 22.0741L14.2514 21.8957ZM23.4931 24.3052H20.3433C20.5174 23.866 20.8529 23.5543 21.2193 23.5543H24.0213C23.8705 23.9162 23.6418 24.2406 23.4931 24.3052Z" fill="black"/>
<path d="M7.26679 16.5245C6.90141 16.5245 6.60522 16.8208 6.60522 17.1861V17.5295C6.60522 17.8948 6.90141 18.191 7.26679 18.191C7.63216 18.191 7.92835 17.8948 7.92835 17.5295V17.1861C7.92835 16.8207 7.63216 16.5245 7.26679 16.5245Z" fill="black"/>
</g>
<defs>
<clipPath id="clip0">
<rect width="32" height="32" fill="white"/>
</clipPath>
</defs>
</svg>
