<svg width="29" height="32" viewBox="0 0 29 32" fill="none" xmlns="http://www.w3.org/2000/svg">
<path d="M28.1463 28.2283L23.4464 20.0878C23.6152 19.8911 23.8446 19.7456 24.1123 19.6825C24.8527 19.508 25.4666 19.0149 25.7966 18.3296C26.1267 17.6443 26.1293 16.8569 25.8042 16.1694C25.5552 15.6431 25.6975 15.0199 26.1501 14.6537C26.7415 14.1753 27.0806 13.4647 27.0806 12.7041C27.0806 11.9435 26.7415 11.2328 26.1501 10.7545C25.6975 10.3884 25.5552 9.76508 25.8042 9.23885C26.1294 8.55124 26.1267 7.76383 25.7966 7.07854C25.4666 6.39325 24.8527 5.90014 24.1123 5.72571C23.5457 5.59221 23.1471 5.09241 23.143 4.51024C23.1378 3.74964 22.7936 3.04141 22.1989 2.56718C21.6042 2.09294 20.8371 1.91501 20.0945 2.07913C19.5259 2.20463 18.95 1.92732 18.6938 1.40459C18.359 0.72161 17.7417 0.232812 17.0001 0.0635673C16.2584 -0.10574 15.4902 0.0668797 14.8922 0.536928C14.4346 0.896729 13.7953 0.896729 13.3376 0.536928C12.7396 0.0668797 11.9714 -0.105615 11.2298 0.0635673C10.4882 0.232812 9.87092 0.72161 9.53611 1.40459C9.27987 1.92732 8.7037 2.20481 8.13547 2.07913C7.39274 1.91514 6.62564 2.09294 6.03104 2.56718C5.43637 3.04141 5.09225 3.74964 5.08694 4.51024C5.08288 5.09235 4.68427 5.59221 4.1176 5.72571C3.37724 5.90014 2.76333 6.39325 2.43334 7.07854C2.10328 7.76383 2.1006 8.55124 2.42577 9.23878C2.6747 9.76502 2.53246 10.3883 2.07985 10.7544C1.48849 11.2328 1.14931 11.9435 1.14931 12.7041C1.14931 13.4647 1.48849 14.1753 2.07985 14.6537C2.53246 15.0198 2.6747 15.6431 2.42577 16.1693C2.10053 16.8569 2.10328 17.6443 2.43334 18.3296C2.76333 19.0149 3.37724 19.508 4.11766 19.6825C4.3854 19.7455 4.61483 19.8911 4.78364 20.0878L0.0837222 28.2283C-0.0428363 28.4476 -0.0246494 28.7215 0.129721 28.9221C0.284153 29.1226 0.54427 29.2102 0.788575 29.144L4.06204 28.2559L4.9297 31.5348C4.99444 31.7796 5.20044 31.961 5.45137 31.9945C5.47905 31.9981 5.50668 32 5.53411 32C5.75517 32 5.96254 31.8825 6.07516 31.6875L10.0855 24.7414C10.4031 25.0354 10.7948 25.2454 11.2299 25.3447C11.9714 25.5138 12.7398 25.3414 13.3378 24.8713C13.7954 24.5115 14.4347 24.5115 14.8924 24.8713C15.3399 25.223 15.8826 25.4082 16.4383 25.4082C16.6251 25.4082 16.8136 25.3873 17.0002 25.3447C17.4353 25.2454 17.827 25.0354 18.1446 24.7414L22.155 31.6875C22.2676 31.8825 22.475 32 22.696 32C22.7234 32 22.7511 31.9981 22.7788 31.9945C23.0297 31.961 23.2357 31.7795 23.3004 31.5348L24.1681 28.2559L27.4416 29.144C27.6859 29.2104 27.946 29.1226 28.1004 28.9221C28.2548 28.7215 28.273 28.4476 28.1463 28.2283ZM5.75042 29.75L5.10957 27.3282C5.06694 27.1674 4.96201 27.03 4.81789 26.9469C4.6737 26.8636 4.5024 26.8414 4.34178 26.8849L1.92398 27.5408L5.25225 21.7761C5.40974 22.1889 5.67511 22.5571 6.03116 22.8411C6.62583 23.3153 7.39299 23.4932 8.1356 23.3291C8.55502 23.2365 8.97819 23.3637 9.27437 23.6465L5.75042 29.75ZM16.722 24.1261C16.3499 24.2109 15.9647 24.1244 15.6649 23.8887C15.2086 23.53 14.6619 23.3507 14.115 23.3507C13.5683 23.3507 13.0214 23.53 12.5652 23.8887C12.2653 24.1245 11.8802 24.211 11.5081 24.1261C11.1361 24.0412 10.8265 23.796 10.6586 23.4535C10.1477 22.4113 8.99919 21.8582 7.86592 22.1086C7.49337 22.1909 7.10869 22.1016 6.81045 21.8638C6.51221 21.6259 6.33959 21.2707 6.3369 20.8892C6.32884 19.7286 5.53411 18.7321 4.40434 18.4659C4.03297 18.3784 3.72511 18.1311 3.55955 17.7873C3.39406 17.4436 3.39268 17.0487 3.5558 16.7038C4.05204 15.6546 3.76842 14.4119 2.86601 13.682C2.56939 13.442 2.39934 13.0856 2.39934 12.7041C2.39934 12.3226 2.56946 11.9662 2.86607 11.7263C3.76842 10.9963 4.0521 9.75364 3.5558 8.70436C3.39268 8.3595 3.39406 7.96457 3.55961 7.6209C3.72511 7.27716 4.03304 7.02985 4.40434 6.94236C5.53411 6.67618 6.32884 5.67964 6.3369 4.51899C6.33959 4.1375 6.51215 3.78227 6.81045 3.54446C7.10869 3.30659 7.4933 3.21728 7.86598 3.29966C8.99913 3.54983 10.1477 2.99698 10.6586 1.95476C10.8265 1.61221 11.1361 1.36703 11.5081 1.28215C11.8801 1.19734 12.2653 1.28378 12.5652 1.51952C13.4777 2.23694 14.7523 2.23694 15.6649 1.51952C15.9648 1.28378 16.35 1.19734 16.722 1.28215C17.0939 1.36703 17.4036 1.61221 17.5715 1.95476C18.0823 2.99698 19.2308 3.54983 20.3642 3.29966C20.7366 3.21722 21.1214 3.30659 21.4196 3.54446C21.7179 3.78233 21.8905 4.1375 21.8932 4.51899C21.9012 5.67964 22.696 6.67618 23.8257 6.94236C24.1971 7.02985 24.505 7.27716 24.6705 7.6209C24.836 7.96464 24.8374 8.3595 24.6743 8.70443C24.178 9.75364 24.4616 10.9963 25.3641 11.7263C25.6607 11.9662 25.8307 12.3226 25.8307 12.7041C25.8307 13.0856 25.6606 13.442 25.364 13.682C24.4616 14.4119 24.178 15.6546 24.6743 16.7039C24.8374 17.0487 24.836 17.4437 24.6705 17.7873C24.505 18.1311 24.197 18.3784 23.8257 18.4659C22.696 18.7321 21.9012 19.7286 21.8932 20.8892C21.8905 21.2707 21.7179 21.626 21.4196 21.8638C21.1214 22.1016 20.7367 22.1908 20.3641 22.1086C19.2308 21.8581 18.0823 22.4113 17.5715 23.4535C17.4036 23.796 17.0939 24.0411 16.722 24.1261ZM23.8883 26.8849C23.7276 26.8414 23.5563 26.8637 23.4122 26.9469C23.2681 27.0301 23.1631 27.1674 23.1205 27.3282L22.4796 29.75L18.9558 23.6465C19.252 23.3637 19.6752 23.2364 20.0945 23.3291C20.8373 23.4932 21.6042 23.3153 22.1989 22.8411C22.555 22.5571 22.8203 22.1889 22.9778 21.7761L26.3061 27.5408L23.8883 26.8849Z" fill="white"/>
<path d="M17.0886 17.4305C17.2175 17.4305 17.3465 17.3906 17.456 17.3111C17.6744 17.1523 17.7663 16.8712 17.6836 16.6141L16.6984 13.5512L19.2964 11.6423C19.5141 11.4824 19.6044 11.2007 19.5203 10.944C19.4361 10.6873 19.1965 10.5138 18.9264 10.5138H15.7115L14.709 7.45916C14.6247 7.20255 14.3852 7.02905 14.1152 7.02905C13.8451 7.02905 13.6056 7.20255 13.5214 7.45916L12.5189 10.5138H9.30397C9.03385 10.5138 8.79423 10.6873 8.71011 10.944C8.62593 11.2007 8.71624 11.4824 8.93398 11.6423L11.532 13.5512L10.5468 16.6141C10.4641 16.8712 10.5559 17.1523 10.7744 17.3111C10.993 17.4698 11.2887 17.4702 11.5076 17.3122L14.1153 15.4293L16.723 17.3122C16.832 17.391 16.9602 17.4305 17.0886 17.4305ZM14.4809 14.1518C14.3717 14.0729 14.2434 14.0335 14.1151 14.0335C13.9868 14.0335 13.8584 14.0729 13.7492 14.1518L12.3196 15.184L12.8595 13.5054C12.9418 13.2495 12.8513 12.9695 12.6346 12.8104L11.21 11.7636H12.9714C13.2415 11.7636 13.481 11.5901 13.5652 11.3335L14.1151 9.65809L14.6649 11.3335C14.7492 11.5901 14.9887 11.7636 15.2587 11.7636H17.0202L15.5955 12.8104C15.3788 12.9695 15.2883 13.2494 15.3706 13.5054L15.9105 15.184L14.4809 14.1518Z" fill="white"/>
<path d="M22.8647 12.7042C22.8647 7.8796 18.9396 3.95447 14.115 3.95447C9.29036 3.95447 5.36523 7.8796 5.36523 12.7042C5.36523 16.3745 7.68247 19.681 11.1314 20.9319C11.4559 21.0495 11.8143 20.8819 11.9321 20.5574C12.0498 20.233 11.8822 19.8745 11.5577 19.7568C8.60145 18.6846 6.61526 15.8504 6.61526 12.7042C6.61526 8.56882 9.97965 5.20443 14.115 5.20443C18.2504 5.20443 21.6148 8.56882 21.6148 12.7042C21.6148 15.8506 19.6284 18.6849 16.672 19.757C16.3475 19.8747 16.1798 20.2331 16.2975 20.5576C16.3897 20.8117 16.6295 20.9697 16.8851 20.9697C16.9558 20.9697 17.0277 20.9576 17.0981 20.9321C20.5473 19.6813 22.8647 16.3748 22.8647 12.7042Z" fill="white"/>
<path d="M14.115 20.2039C13.9506 20.2039 13.7894 20.2707 13.6731 20.387C13.5569 20.5032 13.49 20.6645 13.49 20.8289C13.49 20.9932 13.5569 21.1545 13.6731 21.2707C13.7894 21.387 13.9506 21.4539 14.115 21.4539C14.2794 21.4539 14.4406 21.387 14.5569 21.2707C14.6731 21.1545 14.74 20.9932 14.74 20.8289C14.74 20.6645 14.6731 20.5032 14.5569 20.387C14.4406 20.2707 14.2794 20.2039 14.115 20.2039Z" fill="white"/>
</svg>
